# xmcd CD database file
#
# Track frame offsets:
#	150
#	11742
#	26020
#	41689
#	54014
#	62546
#	74115
#	87961
#	101028
#	115909
#	130254
#	139975
#	157064
#	168368
#	182492
#	196607
#
# Disc length: 2823 seconds
#
# Revision: 0
# Processed by: cddbd v1.5.2PL0 Copyright (c) Steve Scherf et al.
# Submitted via: CDex 1.51
#
DISCID=db0b0510
DTITLE=Cadillac Three - Country Fuzz
DYEAR=2020
DGENRE=Country
TTITLE0=Bar Round Here
TTITLE1=The Jam
TTITLE2=Hard Out Here For A Country Boy
TTITLE3=Slow Rollin'
TTITLE4=All The Makin's Of A Saturday Night
TTITLE5=Crackin' Cold Ones With The Boys
TTITLE6=Labels
TTITLE7=Raise Hell
TTITLE8=Back Home
TTITLE9=Dirt Road Nights
TTITLE10=Blue El Camino
TTITLE11=Jack Daniels' Heart
TTITLE12=Why Ya Gotta Go Out Like That
TTITLE13=Heat
TTITLE14=Whiskey And Smoke
TTITLE15=Long After Last Call
EXTD=YEAR: 2020
EXTT0=
EXTT1=
EXTT2=
EXTT3=
EXTT4=
EXTT5=
EXTT6=
EXTT7=
EXTT8=
EXTT9=
EXTT10=
EXTT11=
EXTT12=
EXTT13=
EXTT14=
EXTT15=
PLAYORDER=
